<svg id="Search" xmlns="http://www.w3.org/2000/svg" width="35.263" height="35.263" viewBox="0 0 35.263 35.263">
  <defs>
    <style>
      .cls-1 {
        fill: #fff;
      }
    </style>
  </defs>
  <path id="Path_2" data-name="Path 2" class="cls-1" d="M4.408,15.427a10.913,10.913,0,0,1,11.02-11.02,10.913,10.913,0,0,1,11.02,11.02,10.913,10.913,0,0,1-11.02,11.02A10.913,10.913,0,0,1,4.408,15.427ZM31.516,34.6A2.182,2.182,0,1,0,34.6,31.516l-6.832-6.832a15.09,15.09,0,0,0,3.085-9.256A15.333,15.333,0,0,0,15.427,0,15.333,15.333,0,0,0,0,15.427,15.333,15.333,0,0,0,15.427,30.855a15.09,15.09,0,0,0,9.256-3.085Z" transform="translate(0 0)"/>
</svg>
